<svg width="322" height="127" viewBox="0 0 322 127" fill="none" xmlns="http://www.w3.org/2000/svg">
<mask id="mask0_16_2758" style="mask-type:luminance" maskUnits="userSpaceOnUse" x="50" y="0" width="127" height="127">
<path d="M50.083 0.604187H176.448V126.969H50.083V0.604187Z" fill="white"/>
</mask>
<g mask="url(#mask0_16_2758)">
<mask id="mask1_16_2758" style="mask-type:luminance" maskUnits="userSpaceOnUse" x="50" y="0" width="127" height="127">
<path d="M113.265 0.604187C78.3695 0.604187 50.083 28.8906 50.083 63.7865C50.083 98.6823 78.3695 126.969 113.265 126.969C148.161 126.969 176.448 98.6823 176.448 63.7865C176.448 28.8906 148.161 0.604187 113.265 0.604187Z" fill="white"/>
</mask>
<g mask="url(#mask1_16_2758)">
<path d="M50.083 0.604187H176.448V126.969H50.083V0.604187Z" fill="#FFDE59"/>
</g>
</g>
<path d="M24.3385 109.076C21.9219 109.076 19.5104 108.852 17.1094 108.41C14.7188 107.977 12.474 107.201 10.3802 106.076C8.29688 104.951 6.52604 103.368 5.06771 101.326C3.60938 99.2951 2.63542 96.7117 2.15104 93.5763H16.0052C16.7656 95.5607 17.8229 96.9201 19.1719 97.6596C20.5156 98.4096 22.2135 98.7846 24.2552 98.7846C27.3906 98.7846 29.6302 98.0555 30.9635 96.5971C32.3073 95.1388 32.9844 93.4409 32.9844 91.5138V85.243C31.4531 87.618 29.6979 89.2169 27.7135 90.0346C25.7396 90.8576 23.5104 91.2638 21.026 91.2638C17.0677 91.2638 13.5469 90.2378 10.4635 88.1805C7.39063 86.1128 4.98958 83.3055 3.25521 79.7638C1.53125 76.2221 0.671875 72.2221 0.671875 67.7638C0.671875 63.2534 1.53125 59.2221 3.25521 55.6805C4.98958 52.1388 7.39063 49.3419 10.4635 47.2846C13.5469 45.2169 17.0677 44.1805 21.026 44.1805C23.5104 44.1805 25.7396 44.5971 27.7135 45.4305C29.6979 46.2534 31.4531 47.8419 32.9844 50.2013V45.1596H46.8594V87.9721C46.8594 92.1492 46.2604 95.618 45.0677 98.368C43.8854 101.118 42.2604 103.269 40.1927 104.826C38.1354 106.394 35.7448 107.493 33.026 108.118C30.3177 108.753 27.4219 109.076 24.3385 109.076ZM24.9219 79.4721C27.9896 79.4721 30.4531 78.3628 32.3177 76.1388C34.1927 73.9201 35.1302 71.1284 35.1302 67.7638C35.1302 64.3628 34.1927 61.5503 32.3177 59.3263C30.4531 57.0919 27.9896 55.9721 24.9219 55.9721C21.8385 55.9721 19.3594 57.1128 17.4844 59.3888C15.6198 61.6701 14.6927 64.4617 14.6927 67.7638C14.6927 71.0138 15.6094 73.7794 17.4427 76.0555C19.2865 78.3367 21.7813 79.4721 24.9219 79.4721Z" fill="white"/>
<path d="M69.779 91.9305H55.9248V45.1596H69.779V50.2013C71.3727 47.8419 73.1436 46.2534 75.0915 45.4305C77.0498 44.5971 79.2633 44.1805 81.7373 44.1805H83.7998V57.368H81.154C79.2373 57.368 77.6436 57.5919 76.3831 58.0346C75.1175 58.4826 74.0706 59.0867 73.2373 59.8471C72.029 61.0034 71.1436 62.5555 70.5915 64.5138C70.0498 66.4617 69.779 69.0294 69.779 72.2221V91.9305Z" fill="white"/>
<path d="M112.405 92.9305C107.572 92.9305 103.301 91.9201 99.5928 89.8888C95.8844 87.8471 92.9938 84.9721 90.9261 81.2638C88.8688 77.5451 87.8428 73.2117 87.8428 68.2638C87.8428 63.4721 88.8688 59.2794 90.9261 55.6805C92.9938 52.0867 95.8688 49.2742 99.5511 47.243C103.228 45.2013 107.515 44.1805 112.405 44.1805C117.306 44.1805 121.598 45.2013 125.28 47.243C128.957 49.2742 131.827 52.0867 133.884 55.6805C135.952 59.2794 136.989 63.4721 136.989 68.2638C136.989 73.2117 135.968 77.5294 133.926 81.2221C131.895 84.9044 129.041 87.7794 125.364 89.8471C121.681 91.9044 117.364 92.9305 112.405 92.9305ZM112.405 81.0346C115.541 81.0346 118.015 79.868 119.822 77.5346C121.64 75.2013 122.551 72.1128 122.551 68.2638C122.551 64.6284 121.64 61.6701 119.822 59.3888C118.015 57.1128 115.541 55.9721 112.405 55.9721C109.332 55.9721 106.848 57.1076 104.947 59.368C103.056 61.618 102.114 64.5867 102.114 68.2638C102.114 72.1701 103.056 75.2742 104.947 77.5763C106.848 79.8836 109.332 81.0346 112.405 81.0346Z" fill="#050A30"/>
<path d="M168.172 91.9305H154.963L140.38 45.1597H155.13L161.984 72.3888L168.984 45.1597H180.859L187.963 72.2222L195.047 45.1597H209.734L194.817 91.9305H181.692L175.088 63.8055L168.172 91.9305Z" fill="white"/>
<path d="M240.577 91.9305H229.535C226.118 91.9305 223.457 91.118 221.556 89.493C219.665 87.868 218.723 85.5763 218.723 82.618V55.9721H212.285V45.1596H218.723V28.993H232.577V45.1596H240.66V55.9721H232.577V77.9096C232.577 78.5659 232.743 79.1961 233.077 79.8055C233.41 80.4201 234.181 80.7221 235.389 80.7221H240.577V91.9305Z" fill="white"/>
<path d="M261.776 91.9305H247.922V28.993H261.776V50.2013C263.37 47.8419 265.141 46.2534 267.089 45.4305C269.047 44.5971 271.26 44.1805 273.734 44.1805C276.818 44.1805 279.359 44.5555 281.359 45.3055C283.37 46.0451 284.969 47.0294 286.151 48.2638C287.328 49.5034 288.219 50.8367 288.818 52.2638C289.76 54.2951 290.302 56.3263 290.443 58.368C290.578 60.3992 290.651 62.868 290.651 65.7846V91.9305H276.776V65.618C276.776 63.3159 276.62 61.4878 276.318 60.1388C276.026 58.7951 275.516 57.7586 274.797 57.0346C273.698 55.8836 271.995 55.3055 269.693 55.3055C268.26 55.3055 267.026 55.4878 265.984 55.8471C264.943 56.2117 264.115 56.8263 263.505 57.7013C262.948 58.4669 262.516 59.4721 262.214 60.7221C261.922 61.9617 261.776 63.5919 261.776 65.618V91.9305Z" fill="white"/>
<path d="M321.768 86.0978V88.577H305.789V86.0978H312.643V78.6603H305.789V76.202H321.768V78.6603H314.852V86.0978H321.768Z" fill="white"/>
<path d="M321.768 71.8448V74.4282L305.789 68.6782V65.9282L321.768 60.1782V62.7198L318.164 63.949V70.6157L321.768 71.8448ZM308.414 67.2823L315.997 69.8657V64.7198L308.414 67.2823Z" fill="white"/>
<path d="M321.768 48.9701V58.4284H305.789V55.9493H319.539V48.9701H321.768Z" fill="white"/>
<path d="M321.768 37.735V47.1933H305.789V44.7142H319.539V37.735H321.768Z" fill="white"/>
</svg>
